<svg width="16" height="16" viewBox="0 0 16 16" fill="none" xmlns="http://www.w3.org/2000/svg" xmlns:xlink="http://www.w3.org/1999/xlink">
	<path d="M8 1C11.87 1 15 4.13 15 8C15 11.87 11.87 15 8 15C4.13 15 1 11.87 1 8C1 4.13 4.13 1 8 1ZM8 2.87C5.16 2.87 2.87 5.16 2.87 8C2.87 10.84 5.16 13.13 8 13.13C10.84 13.13 13.13 10.84 13.13 8C13.13 5.16 10.84 2.87 8 2.87ZM8 5C9.66 5 11 6.34 11 8C11 9.66 9.66 11 8 11C6.34 11 5 9.66 5 8C5 6.34 6.34 5 8 5Z" fill="currentColor" fill-opacity="1.000000" fill-rule="evenodd"/>
</svg>
